<svg xmlns="http://www.w3.org/2000/svg" viewBox="0 0 125.54 114.94"><defs><style>.cls-1{fill:#529b38;}.cls-2{fill:#529b38;}.cls-3{fill:#529b38;}.cls-4{fill:#cfd427;}.cls-5{fill:#cfd427;}.cls-6{fill:#cfd427;}</style></defs><g id="Layer_2" data-name="Layer 2"><g id="Layer_1-2" data-name="Layer 1"><path class="cls-1" d="M71.84,88.21A26.49,26.49,0,0,1,98.78,61.46,26.74,26.74,0,1,1,71.84,88.21ZM98.56,72.87a15.31,15.31,0,1,0,15.43,15A15.16,15.16,0,0,0,98.56,72.87Z"/><path class="cls-2" d="M53.7,88.32A26.72,26.72,0,0,1,27,114.94a26.74,26.74,0,1,1-.13-53.48A26.5,26.5,0,0,1,53.7,88.32ZM26.77,103.49a15.31,15.31,0,1,0,.34-30.62,15.31,15.31,0,1,0-.34,30.62Z"/><path class="cls-3" d="M62.87,53.19A26.6,26.6,0,1,1,62.92,0a26.6,26.6,0,1,1-.05,53.19ZM78.15,26.82A15.38,15.38,0,1,0,62.8,42.07,15.42,15.42,0,0,0,78.15,26.82Z"/><path class="cls-4" d="M108.89,59.3l-11-1.47c-2.91-4.69-5.65-9-8.24-13.38a4.19,4.19,0,0,1-.47-3.05c1-2.93,2.38-5.74,3.94-9.38A46.13,46.13,0,0,1,108.89,59.3Z"/><path class="cls-5" d="M46.5,111.35c3.15-3.45,5.26-7.86,8.3-8.64a33.39,33.39,0,0,1,16.23.06c3,.8,5,5.29,7.85,8.6C68,115.21,57.72,115.12,46.5,111.35Z"/><path class="cls-6" d="M16.79,58.36C18.87,48,24,39.33,33.05,31.52c1.17,4.9,4.19,10.3,2.65,12.51C31.19,50.49,30,62.22,16.79,58.36Z"/></g></g></svg>